<mxfile host="Electron" modified="2024-07-24T13:17:31.004Z" agent="Mozilla/5.0 (Windows NT 10.0; Win64; x64) AppleWebKit/537.36 (KHTML, like Gecko) draw.io/24.6.4 Chrome/124.0.6367.207 Electron/30.0.6 Safari/537.36" etag="iHfSnNLg5UznjRMyEqzz" version="24.6.4" type="device">
  <diagram name="Page-1" id="KI7zTDsT1i9wNtw5n0_E">
    <mxGraphModel dx="2074" dy="1204" grid="0" gridSize="10" guides="1" tooltips="1" connect="1" arrows="1" fold="1" page="1" pageScale="1" pageWidth="2339" pageHeight="3300" math="0" shadow="0">
      <root>
        <mxCell id="0" />
        <mxCell id="1" parent="0" />
        <mxCell id="sGiRcGzGCiqCJtUnWVk3-1" value="PGCollectResources" style="shape=umlLifeline;perimeter=lifelinePerimeter;whiteSpace=wrap;html=1;container=1;dropTarget=0;collapsible=0;recursiveResize=0;outlineConnect=0;portConstraint=eastwest;newEdgeStyle={&quot;edgeStyle&quot;:&quot;elbowEdgeStyle&quot;,&quot;elbow&quot;:&quot;vertical&quot;,&quot;curved&quot;:0,&quot;rounded&quot;:0};fillColor=#f5f5f5;fontColor=#333333;strokeColor=#666666;" vertex="1" parent="1">
          <mxGeometry x="140" y="80" width="120" height="1160" as="geometry" />
        </mxCell>
        <mxCell id="sGiRcGzGCiqCJtUnWVk3-13" value="" style="html=1;points=[[0,0,0,0,5],[0,1,0,0,-5],[1,0,0,0,5],[1,1,0,0,-5]];perimeter=orthogonalPerimeter;outlineConnect=0;targetShapes=umlLifeline;portConstraint=eastwest;newEdgeStyle={&quot;curved&quot;:0,&quot;rounded&quot;:0};" vertex="1" parent="sGiRcGzGCiqCJtUnWVk3-1">
          <mxGeometry x="55" y="80" width="10" height="790" as="geometry" />
        </mxCell>
        <mxCell id="sGiRcGzGCiqCJtUnWVk3-16" value="" style="html=1;points=[[0,0,0,0,5],[0,1,0,0,-5],[1,0,0,0,5],[1,1,0,0,-5]];perimeter=orthogonalPerimeter;outlineConnect=0;targetShapes=umlLifeline;portConstraint=eastwest;newEdgeStyle={&quot;curved&quot;:0,&quot;rounded&quot;:0};" vertex="1" parent="sGiRcGzGCiqCJtUnWVk3-1">
          <mxGeometry x="55" y="80" width="10" height="1080" as="geometry" />
        </mxCell>
        <mxCell id="sGiRcGzGCiqCJtUnWVk3-2" value="psql::APIClient" style="shape=umlLifeline;perimeter=lifelinePerimeter;whiteSpace=wrap;html=1;container=1;dropTarget=0;collapsible=0;recursiveResize=0;outlineConnect=0;portConstraint=eastwest;newEdgeStyle={&quot;edgeStyle&quot;:&quot;elbowEdgeStyle&quot;,&quot;elbow&quot;:&quot;vertical&quot;,&quot;curved&quot;:0,&quot;rounded&quot;:0};fillColor=#f5f5f5;fontColor=#333333;strokeColor=#666666;" vertex="1" parent="1">
          <mxGeometry x="310" y="80" width="100" height="1160" as="geometry" />
        </mxCell>
        <mxCell id="sGiRcGzGCiqCJtUnWVk3-24" value="" style="html=1;points=[[0,0,0,0,5],[0,1,0,0,-5],[1,0,0,0,5],[1,1,0,0,-5]];perimeter=orthogonalPerimeter;outlineConnect=0;targetShapes=umlLifeline;portConstraint=eastwest;newEdgeStyle={&quot;curved&quot;:0,&quot;rounded&quot;:0};" vertex="1" parent="sGiRcGzGCiqCJtUnWVk3-2">
          <mxGeometry x="45" y="190" width="10" height="30" as="geometry" />
        </mxCell>
        <mxCell id="sGiRcGzGCiqCJtUnWVk3-33" value="" style="html=1;points=[[0,0,0,0,5],[0,1,0,0,-5],[1,0,0,0,5],[1,1,0,0,-5]];perimeter=orthogonalPerimeter;outlineConnect=0;targetShapes=umlLifeline;portConstraint=eastwest;newEdgeStyle={&quot;curved&quot;:0,&quot;rounded&quot;:0};" vertex="1" parent="sGiRcGzGCiqCJtUnWVk3-2">
          <mxGeometry x="45" y="300" width="10" height="40" as="geometry" />
        </mxCell>
        <mxCell id="sGiRcGzGCiqCJtUnWVk3-50" value="" style="html=1;points=[[0,0,0,0,5],[0,1,0,0,-5],[1,0,0,0,5],[1,1,0,0,-5]];perimeter=orthogonalPerimeter;outlineConnect=0;targetShapes=umlLifeline;portConstraint=eastwest;newEdgeStyle={&quot;curved&quot;:0,&quot;rounded&quot;:0};" vertex="1" parent="sGiRcGzGCiqCJtUnWVk3-2">
          <mxGeometry x="45" y="555" width="10" height="40" as="geometry" />
        </mxCell>
        <mxCell id="sGiRcGzGCiqCJtUnWVk3-56" value="" style="html=1;points=[[0,0,0,0,5],[0,1,0,0,-5],[1,0,0,0,5],[1,1,0,0,-5]];perimeter=orthogonalPerimeter;outlineConnect=0;targetShapes=umlLifeline;portConstraint=eastwest;newEdgeStyle={&quot;curved&quot;:0,&quot;rounded&quot;:0};" vertex="1" parent="sGiRcGzGCiqCJtUnWVk3-2">
          <mxGeometry x="45" y="665" width="10" height="40" as="geometry" />
        </mxCell>
        <mxCell id="sGiRcGzGCiqCJtUnWVk3-3" value="sync::RWMutex" style="shape=umlLifeline;perimeter=lifelinePerimeter;whiteSpace=wrap;html=1;container=1;dropTarget=0;collapsible=0;recursiveResize=0;outlineConnect=0;portConstraint=eastwest;newEdgeStyle={&quot;edgeStyle&quot;:&quot;elbowEdgeStyle&quot;,&quot;elbow&quot;:&quot;vertical&quot;,&quot;curved&quot;:0,&quot;rounded&quot;:0};fillColor=#f5f5f5;fontColor=#333333;strokeColor=#666666;" vertex="1" parent="1">
          <mxGeometry x="500" y="80" width="100" height="1160" as="geometry" />
        </mxCell>
        <mxCell id="sGiRcGzGCiqCJtUnWVk3-18" value="" style="html=1;points=[[0,0,0,0,5],[0,1,0,0,-5],[1,0,0,0,5],[1,1,0,0,-5]];perimeter=orthogonalPerimeter;outlineConnect=0;targetShapes=umlLifeline;portConstraint=eastwest;newEdgeStyle={&quot;curved&quot;:0,&quot;rounded&quot;:0};" vertex="1" parent="sGiRcGzGCiqCJtUnWVk3-3">
          <mxGeometry x="45" y="80" width="10" height="40" as="geometry" />
        </mxCell>
        <mxCell id="sGiRcGzGCiqCJtUnWVk3-82" value="" style="html=1;points=[[0,0,0,0,5],[0,1,0,0,-5],[1,0,0,0,5],[1,1,0,0,-5]];perimeter=orthogonalPerimeter;outlineConnect=0;targetShapes=umlLifeline;portConstraint=eastwest;newEdgeStyle={&quot;curved&quot;:0,&quot;rounded&quot;:0};" vertex="1" parent="sGiRcGzGCiqCJtUnWVk3-3">
          <mxGeometry x="45" y="1030" width="10" height="60" as="geometry" />
        </mxCell>
        <mxCell id="sGiRcGzGCiqCJtUnWVk3-4" value="Config" style="shape=umlLifeline;perimeter=lifelinePerimeter;whiteSpace=wrap;html=1;container=1;dropTarget=0;collapsible=0;recursiveResize=0;outlineConnect=0;portConstraint=eastwest;newEdgeStyle={&quot;edgeStyle&quot;:&quot;elbowEdgeStyle&quot;,&quot;elbow&quot;:&quot;vertical&quot;,&quot;curved&quot;:0,&quot;rounded&quot;:0};fillColor=#f5f5f5;fontColor=#333333;strokeColor=#666666;" vertex="1" parent="1">
          <mxGeometry x="680" y="80" width="100" height="1160" as="geometry" />
        </mxCell>
        <mxCell id="sGiRcGzGCiqCJtUnWVk3-21" value="" style="html=1;points=[[0,0,0,0,5],[0,1,0,0,-5],[1,0,0,0,5],[1,1,0,0,-5]];perimeter=orthogonalPerimeter;outlineConnect=0;targetShapes=umlLifeline;portConstraint=eastwest;newEdgeStyle={&quot;curved&quot;:0,&quot;rounded&quot;:0};" vertex="1" parent="sGiRcGzGCiqCJtUnWVk3-4">
          <mxGeometry x="45" y="140" width="10" height="30" as="geometry" />
        </mxCell>
        <mxCell id="sGiRcGzGCiqCJtUnWVk3-5" value="processCluster" style="shape=umlLifeline;perimeter=lifelinePerimeter;whiteSpace=wrap;html=1;container=1;dropTarget=0;collapsible=0;recursiveResize=0;outlineConnect=0;portConstraint=eastwest;newEdgeStyle={&quot;edgeStyle&quot;:&quot;elbowEdgeStyle&quot;,&quot;elbow&quot;:&quot;vertical&quot;,&quot;curved&quot;:0,&quot;rounded&quot;:0};fillColor=#f5f5f5;fontColor=#333333;strokeColor=#666666;" vertex="1" parent="1">
          <mxGeometry x="840" y="80" width="100" height="1160" as="geometry" />
        </mxCell>
        <mxCell id="sGiRcGzGCiqCJtUnWVk3-27" value="" style="html=1;points=[[0,0,0,0,5],[0,1,0,0,-5],[1,0,0,0,5],[1,1,0,0,-5]];perimeter=orthogonalPerimeter;outlineConnect=0;targetShapes=umlLifeline;portConstraint=eastwest;newEdgeStyle={&quot;curved&quot;:0,&quot;rounded&quot;:0};" vertex="1" parent="sGiRcGzGCiqCJtUnWVk3-5">
          <mxGeometry x="45" y="240" width="10" height="920" as="geometry" />
        </mxCell>
        <mxCell id="sGiRcGzGCiqCJtUnWVk3-80" style="edgeStyle=orthogonalEdgeStyle;rounded=0;orthogonalLoop=1;jettySize=auto;html=1;curved=0;" edge="1" parent="sGiRcGzGCiqCJtUnWVk3-5" source="sGiRcGzGCiqCJtUnWVk3-27" target="sGiRcGzGCiqCJtUnWVk3-27">
          <mxGeometry relative="1" as="geometry">
            <mxPoint x="60" y="980" as="sourcePoint" />
            <mxPoint x="60" y="1000" as="targetPoint" />
            <Array as="points">
              <mxPoint x="120" y="980" />
              <mxPoint x="120" y="1000" />
            </Array>
          </mxGeometry>
        </mxCell>
        <mxCell id="sGiRcGzGCiqCJtUnWVk3-81" value="Append telemetry data" style="edgeLabel;html=1;align=center;verticalAlign=middle;resizable=0;points=[];" vertex="1" connectable="0" parent="sGiRcGzGCiqCJtUnWVk3-80">
          <mxGeometry x="-0.439" y="-1" relative="1" as="geometry">
            <mxPoint x="23" y="-11" as="offset" />
          </mxGeometry>
        </mxCell>
        <mxCell id="sGiRcGzGCiqCJtUnWVk3-85" style="edgeStyle=orthogonalEdgeStyle;rounded=0;orthogonalLoop=1;jettySize=auto;html=1;curved=0;" edge="1" parent="sGiRcGzGCiqCJtUnWVk3-5" source="sGiRcGzGCiqCJtUnWVk3-27" target="sGiRcGzGCiqCJtUnWVk3-27">
          <mxGeometry relative="1" as="geometry">
            <mxPoint x="60" y="1120" as="sourcePoint" />
            <mxPoint x="60" y="1140" as="targetPoint" />
            <Array as="points">
              <mxPoint x="115" y="1120" />
              <mxPoint x="115" y="1140" />
            </Array>
          </mxGeometry>
        </mxCell>
        <mxCell id="sGiRcGzGCiqCJtUnWVk3-86" value="log error" style="edgeLabel;html=1;align=center;verticalAlign=middle;resizable=0;points=[];" vertex="1" connectable="0" parent="sGiRcGzGCiqCJtUnWVk3-85">
          <mxGeometry x="-0.439" y="-1" relative="1" as="geometry">
            <mxPoint x="-14" y="-11" as="offset" />
          </mxGeometry>
        </mxCell>
        <mxCell id="sGiRcGzGCiqCJtUnWVk3-6" value="fetchCluster" style="shape=umlLifeline;perimeter=lifelinePerimeter;whiteSpace=wrap;html=1;container=1;dropTarget=0;collapsible=0;recursiveResize=0;outlineConnect=0;portConstraint=eastwest;newEdgeStyle={&quot;edgeStyle&quot;:&quot;elbowEdgeStyle&quot;,&quot;elbow&quot;:&quot;vertical&quot;,&quot;curved&quot;:0,&quot;rounded&quot;:0};fillColor=#f5f5f5;fontColor=#333333;strokeColor=#666666;" vertex="1" parent="1">
          <mxGeometry x="1020" y="80" width="100" height="1160" as="geometry" />
        </mxCell>
        <mxCell id="sGiRcGzGCiqCJtUnWVk3-30" value="" style="html=1;points=[[0,0,0,0,5],[0,1,0,0,-5],[1,0,0,0,5],[1,1,0,0,-5]];perimeter=orthogonalPerimeter;outlineConnect=0;targetShapes=umlLifeline;portConstraint=eastwest;newEdgeStyle={&quot;curved&quot;:0,&quot;rounded&quot;:0};" vertex="1" parent="sGiRcGzGCiqCJtUnWVk3-6">
          <mxGeometry x="45" y="270" width="10" height="100" as="geometry" />
        </mxCell>
        <mxCell id="sGiRcGzGCiqCJtUnWVk3-7" value="fetchDatabases" style="shape=umlLifeline;perimeter=lifelinePerimeter;whiteSpace=wrap;html=1;container=1;dropTarget=0;collapsible=0;recursiveResize=0;outlineConnect=0;portConstraint=eastwest;newEdgeStyle={&quot;edgeStyle&quot;:&quot;elbowEdgeStyle&quot;,&quot;elbow&quot;:&quot;vertical&quot;,&quot;curved&quot;:0,&quot;rounded&quot;:0};fillColor=#f5f5f5;fontColor=#333333;strokeColor=#666666;" vertex="1" parent="1">
          <mxGeometry x="1170" y="80" width="100" height="1160" as="geometry" />
        </mxCell>
        <mxCell id="sGiRcGzGCiqCJtUnWVk3-47" value="" style="html=1;points=[[0,0,0,0,5],[0,1,0,0,-5],[1,0,0,0,5],[1,1,0,0,-5]];perimeter=orthogonalPerimeter;outlineConnect=0;targetShapes=umlLifeline;portConstraint=eastwest;newEdgeStyle={&quot;curved&quot;:0,&quot;rounded&quot;:0};" vertex="1" parent="sGiRcGzGCiqCJtUnWVk3-7">
          <mxGeometry x="45" y="530" width="10" height="90" as="geometry" />
        </mxCell>
        <mxCell id="sGiRcGzGCiqCJtUnWVk3-8" value="fetchOwner" style="shape=umlLifeline;perimeter=lifelinePerimeter;whiteSpace=wrap;html=1;container=1;dropTarget=0;collapsible=0;recursiveResize=0;outlineConnect=0;portConstraint=eastwest;newEdgeStyle={&quot;edgeStyle&quot;:&quot;elbowEdgeStyle&quot;,&quot;elbow&quot;:&quot;vertical&quot;,&quot;curved&quot;:0,&quot;rounded&quot;:0};fillColor=#f5f5f5;fontColor=#333333;strokeColor=#666666;" vertex="1" parent="1">
          <mxGeometry x="1320" y="80" width="100" height="1160" as="geometry" />
        </mxCell>
        <mxCell id="sGiRcGzGCiqCJtUnWVk3-53" value="" style="html=1;points=[[0,0,0,0,5],[0,1,0,0,-5],[1,0,0,0,5],[1,1,0,0,-5]];perimeter=orthogonalPerimeter;outlineConnect=0;targetShapes=umlLifeline;portConstraint=eastwest;newEdgeStyle={&quot;curved&quot;:0,&quot;rounded&quot;:0};" vertex="1" parent="sGiRcGzGCiqCJtUnWVk3-8">
          <mxGeometry x="45" y="640" width="10" height="90" as="geometry" />
        </mxCell>
        <mxCell id="sGiRcGzGCiqCJtUnWVk3-9" value="fetchTelemetryMetrics" style="shape=umlLifeline;perimeter=lifelinePerimeter;whiteSpace=wrap;html=1;container=1;dropTarget=0;collapsible=0;recursiveResize=0;outlineConnect=0;portConstraint=eastwest;newEdgeStyle={&quot;edgeStyle&quot;:&quot;elbowEdgeStyle&quot;,&quot;elbow&quot;:&quot;vertical&quot;,&quot;curved&quot;:0,&quot;rounded&quot;:0};fillColor=#f5f5f5;fontColor=#333333;strokeColor=#666666;" vertex="1" parent="1">
          <mxGeometry x="1480" y="80" width="130" height="1160" as="geometry" />
        </mxCell>
        <mxCell id="sGiRcGzGCiqCJtUnWVk3-59" value="" style="html=1;points=[[0,0,0,0,5],[0,1,0,0,-5],[1,0,0,0,5],[1,1,0,0,-5]];perimeter=orthogonalPerimeter;outlineConnect=0;targetShapes=umlLifeline;portConstraint=eastwest;newEdgeStyle={&quot;curved&quot;:0,&quot;rounded&quot;:0};" vertex="1" parent="sGiRcGzGCiqCJtUnWVk3-9">
          <mxGeometry x="60" y="750" width="10" height="210" as="geometry" />
        </mxCell>
        <mxCell id="sGiRcGzGCiqCJtUnWVk3-71" style="edgeStyle=orthogonalEdgeStyle;rounded=0;orthogonalLoop=1;jettySize=auto;html=1;curved=0;" edge="1" parent="sGiRcGzGCiqCJtUnWVk3-9">
          <mxGeometry relative="1" as="geometry">
            <mxPoint x="70" y="770" as="sourcePoint" />
            <mxPoint x="70" y="790" as="targetPoint" />
            <Array as="points">
              <mxPoint x="130" y="770" />
              <mxPoint x="130" y="790" />
            </Array>
          </mxGeometry>
        </mxCell>
        <mxCell id="sGiRcGzGCiqCJtUnWVk3-75" value="Create HTTP GET request" style="edgeLabel;html=1;align=center;verticalAlign=middle;resizable=0;points=[];" vertex="1" connectable="0" parent="sGiRcGzGCiqCJtUnWVk3-71">
          <mxGeometry x="-0.5451" relative="1" as="geometry">
            <mxPoint x="38" y="-10" as="offset" />
          </mxGeometry>
        </mxCell>
        <mxCell id="sGiRcGzGCiqCJtUnWVk3-72" style="edgeStyle=orthogonalEdgeStyle;rounded=0;orthogonalLoop=1;jettySize=auto;html=1;curved=0;" edge="1" parent="sGiRcGzGCiqCJtUnWVk3-9">
          <mxGeometry relative="1" as="geometry">
            <mxPoint x="70" y="810" as="sourcePoint" />
            <mxPoint x="70" y="830" as="targetPoint" />
            <Array as="points">
              <mxPoint x="130" y="810" />
              <mxPoint x="130" y="830" />
            </Array>
          </mxGeometry>
        </mxCell>
        <mxCell id="sGiRcGzGCiqCJtUnWVk3-76" value="Set Authorization Header" style="edgeLabel;html=1;align=center;verticalAlign=middle;resizable=0;points=[];" vertex="1" connectable="0" parent="sGiRcGzGCiqCJtUnWVk3-72">
          <mxGeometry x="-0.5288" y="3" relative="1" as="geometry">
            <mxPoint x="37" y="-7" as="offset" />
          </mxGeometry>
        </mxCell>
        <mxCell id="sGiRcGzGCiqCJtUnWVk3-73" style="edgeStyle=orthogonalEdgeStyle;rounded=0;orthogonalLoop=1;jettySize=auto;html=1;curved=0;" edge="1" parent="sGiRcGzGCiqCJtUnWVk3-9" source="sGiRcGzGCiqCJtUnWVk3-59" target="sGiRcGzGCiqCJtUnWVk3-59">
          <mxGeometry relative="1" as="geometry">
            <Array as="points">
              <mxPoint x="130" y="850" />
              <mxPoint x="130" y="870" />
            </Array>
          </mxGeometry>
        </mxCell>
        <mxCell id="sGiRcGzGCiqCJtUnWVk3-77" value="Execute HTTP request" style="edgeLabel;html=1;align=center;verticalAlign=middle;resizable=0;points=[];" vertex="1" connectable="0" parent="sGiRcGzGCiqCJtUnWVk3-73">
          <mxGeometry x="-0.439" relative="1" as="geometry">
            <mxPoint x="21" y="-10" as="offset" />
          </mxGeometry>
        </mxCell>
        <mxCell id="sGiRcGzGCiqCJtUnWVk3-74" style="edgeStyle=orthogonalEdgeStyle;rounded=0;orthogonalLoop=1;jettySize=auto;html=1;curved=0;" edge="1" parent="sGiRcGzGCiqCJtUnWVk3-9">
          <mxGeometry relative="1" as="geometry">
            <mxPoint x="70" y="890" as="sourcePoint" />
            <mxPoint x="70" y="910" as="targetPoint" />
            <Array as="points">
              <mxPoint x="130" y="890" />
              <mxPoint x="130" y="910" />
            </Array>
          </mxGeometry>
        </mxCell>
        <mxCell id="sGiRcGzGCiqCJtUnWVk3-78" value="Decode JSON response" style="edgeLabel;html=1;align=center;verticalAlign=middle;resizable=0;points=[];" vertex="1" connectable="0" parent="sGiRcGzGCiqCJtUnWVk3-74">
          <mxGeometry x="-0.439" y="-1" relative="1" as="geometry">
            <mxPoint x="31" y="-11" as="offset" />
          </mxGeometry>
        </mxCell>
        <mxCell id="sGiRcGzGCiqCJtUnWVk3-12" style="edgeStyle=orthogonalEdgeStyle;rounded=0;orthogonalLoop=1;jettySize=auto;html=1;exitX=0.5;exitY=0.5;exitDx=0;exitDy=0;exitPerimeter=0;" edge="1" parent="1" source="sGiRcGzGCiqCJtUnWVk3-11" target="sGiRcGzGCiqCJtUnWVk3-1">
          <mxGeometry relative="1" as="geometry">
            <Array as="points">
              <mxPoint x="45" y="160" />
            </Array>
          </mxGeometry>
        </mxCell>
        <mxCell id="sGiRcGzGCiqCJtUnWVk3-11" value="Actor" style="shape=umlActor;verticalLabelPosition=bottom;verticalAlign=top;html=1;" vertex="1" parent="1">
          <mxGeometry x="10" y="90" width="30" height="60" as="geometry" />
        </mxCell>
        <mxCell id="sGiRcGzGCiqCJtUnWVk3-19" value="Load .env file" style="html=1;verticalAlign=bottom;endArrow=block;curved=0;rounded=0;entryX=0;entryY=0;entryDx=0;entryDy=5;" edge="1" target="sGiRcGzGCiqCJtUnWVk3-18" parent="1" source="sGiRcGzGCiqCJtUnWVk3-16">
          <mxGeometry x="-0.7353" relative="1" as="geometry">
            <mxPoint x="475" y="165" as="sourcePoint" />
            <mxPoint as="offset" />
          </mxGeometry>
        </mxCell>
        <mxCell id="sGiRcGzGCiqCJtUnWVk3-20" value="Return" style="html=1;verticalAlign=bottom;endArrow=open;dashed=1;endSize=8;curved=0;rounded=0;exitX=0;exitY=1;exitDx=0;exitDy=-5;" edge="1" source="sGiRcGzGCiqCJtUnWVk3-18" parent="1" target="sGiRcGzGCiqCJtUnWVk3-16">
          <mxGeometry x="0.7941" relative="1" as="geometry">
            <mxPoint x="475" y="235" as="targetPoint" />
            <mxPoint as="offset" />
          </mxGeometry>
        </mxCell>
        <mxCell id="sGiRcGzGCiqCJtUnWVk3-23" value="Return" style="html=1;verticalAlign=bottom;endArrow=open;dashed=1;endSize=8;curved=0;rounded=0;exitX=0;exitY=1;exitDx=0;exitDy=-5;" edge="1" source="sGiRcGzGCiqCJtUnWVk3-21" parent="1" target="sGiRcGzGCiqCJtUnWVk3-16">
          <mxGeometry x="0.8654" relative="1" as="geometry">
            <mxPoint x="655" y="285" as="targetPoint" />
            <mxPoint as="offset" />
          </mxGeometry>
        </mxCell>
        <mxCell id="sGiRcGzGCiqCJtUnWVk3-22" value="Load Config" style="html=1;verticalAlign=bottom;endArrow=block;curved=0;rounded=0;entryX=0;entryY=0;entryDx=0;entryDy=5;" edge="1" target="sGiRcGzGCiqCJtUnWVk3-21" parent="1" source="sGiRcGzGCiqCJtUnWVk3-16">
          <mxGeometry x="-0.8654" relative="1" as="geometry">
            <mxPoint x="655" y="215" as="sourcePoint" />
            <mxPoint as="offset" />
          </mxGeometry>
        </mxCell>
        <mxCell id="sGiRcGzGCiqCJtUnWVk3-26" value="Return" style="html=1;verticalAlign=bottom;endArrow=open;dashed=1;endSize=8;curved=0;rounded=0;exitX=0;exitY=1;exitDx=0;exitDy=-5;" edge="1" source="sGiRcGzGCiqCJtUnWVk3-24" parent="1" target="sGiRcGzGCiqCJtUnWVk3-16">
          <mxGeometry x="0.6667" relative="1" as="geometry">
            <mxPoint x="285" y="335" as="targetPoint" />
            <mxPoint as="offset" />
          </mxGeometry>
        </mxCell>
        <mxCell id="sGiRcGzGCiqCJtUnWVk3-25" value="NewApiClient" style="html=1;verticalAlign=bottom;endArrow=block;curved=0;rounded=0;entryX=0;entryY=0;entryDx=0;entryDy=5;" edge="1" target="sGiRcGzGCiqCJtUnWVk3-24" parent="1" source="sGiRcGzGCiqCJtUnWVk3-16">
          <mxGeometry x="-0.4" relative="1" as="geometry">
            <mxPoint x="285" y="265" as="sourcePoint" />
            <mxPoint as="offset" />
          </mxGeometry>
        </mxCell>
        <mxCell id="sGiRcGzGCiqCJtUnWVk3-28" value="processCluster(apiClient, m, config.Metrics)" style="html=1;verticalAlign=bottom;endArrow=block;curved=0;rounded=0;entryX=0;entryY=0;entryDx=0;entryDy=5;" edge="1" target="sGiRcGzGCiqCJtUnWVk3-27" parent="1" source="sGiRcGzGCiqCJtUnWVk3-16">
          <mxGeometry x="-0.6618" relative="1" as="geometry">
            <mxPoint x="815" y="325" as="sourcePoint" />
            <mxPoint as="offset" />
          </mxGeometry>
        </mxCell>
        <mxCell id="sGiRcGzGCiqCJtUnWVk3-29" value="Update IonosPostgresClusters" style="html=1;verticalAlign=bottom;endArrow=open;dashed=1;endSize=8;curved=0;rounded=0;exitX=0;exitY=1;exitDx=0;exitDy=-5;" edge="1" parent="1" target="sGiRcGzGCiqCJtUnWVk3-82">
          <mxGeometry x="0.4848" relative="1" as="geometry">
            <mxPoint x="580" y="1140" as="targetPoint" />
            <mxPoint x="885" y="1139.9999999999955" as="sourcePoint" />
            <mxPoint as="offset" />
          </mxGeometry>
        </mxCell>
        <mxCell id="sGiRcGzGCiqCJtUnWVk3-31" value="fetchCluster(apiClient)" style="html=1;verticalAlign=bottom;endArrow=block;curved=0;rounded=0;entryX=0;entryY=0;entryDx=0;entryDy=5;" edge="1" target="sGiRcGzGCiqCJtUnWVk3-30" parent="1" source="sGiRcGzGCiqCJtUnWVk3-27">
          <mxGeometry x="-0.2353" relative="1" as="geometry">
            <mxPoint x="995" y="355" as="sourcePoint" />
            <mxPoint as="offset" />
          </mxGeometry>
        </mxCell>
        <mxCell id="sGiRcGzGCiqCJtUnWVk3-32" value="Return" style="html=1;verticalAlign=bottom;endArrow=open;dashed=1;endSize=8;curved=0;rounded=0;exitX=0;exitY=1;exitDx=0;exitDy=-5;" edge="1" source="sGiRcGzGCiqCJtUnWVk3-30" parent="1" target="sGiRcGzGCiqCJtUnWVk3-27">
          <mxGeometry x="0.5882" relative="1" as="geometry">
            <mxPoint x="995" y="425" as="targetPoint" />
            <mxPoint as="offset" />
          </mxGeometry>
        </mxCell>
        <mxCell id="sGiRcGzGCiqCJtUnWVk3-34" value="ClustersGet(context.Background)" style="html=1;verticalAlign=bottom;endArrow=block;curved=0;rounded=0;entryX=1;entryY=0;entryDx=0;entryDy=5;" edge="1" target="sGiRcGzGCiqCJtUnWVk3-33" parent="1" source="sGiRcGzGCiqCJtUnWVk3-30">
          <mxGeometry x="0.7286" relative="1" as="geometry">
            <mxPoint x="435" y="365" as="sourcePoint" />
            <mxPoint as="offset" />
          </mxGeometry>
        </mxCell>
        <mxCell id="sGiRcGzGCiqCJtUnWVk3-35" value="Return ClusterList" style="html=1;verticalAlign=bottom;endArrow=open;dashed=1;endSize=8;curved=0;rounded=0;exitX=1;exitY=1;exitDx=0;exitDy=-5;" edge="1" source="sGiRcGzGCiqCJtUnWVk3-33" parent="1" target="sGiRcGzGCiqCJtUnWVk3-30">
          <mxGeometry x="-0.8429" relative="1" as="geometry">
            <mxPoint x="435" y="435" as="targetPoint" />
            <mxPoint as="offset" />
          </mxGeometry>
        </mxCell>
        <mxCell id="sGiRcGzGCiqCJtUnWVk3-43" value="alt" style="shape=umlFrame;whiteSpace=wrap;html=1;pointerEvents=0;recursiveResize=0;container=1;collapsible=0;width=60;height=30;strokeWidth=2;" vertex="1" parent="1">
          <mxGeometry x="290" y="340" width="830" height="210" as="geometry" />
        </mxCell>
        <mxCell id="sGiRcGzGCiqCJtUnWVk3-44" value="&lt;b&gt;[ if fetchClusters succedes ]&lt;/b&gt;" style="text;html=1;" vertex="1" parent="sGiRcGzGCiqCJtUnWVk3-43">
          <mxGeometry width="100" height="20" relative="1" as="geometry">
            <mxPoint x="80" as="offset" />
          </mxGeometry>
        </mxCell>
        <mxCell id="sGiRcGzGCiqCJtUnWVk3-45" value="&lt;b&gt;[ fetchClusters fails]&lt;/b&gt;" style="line;strokeWidth=1;dashed=1;labelPosition=center;verticalLabelPosition=bottom;align=left;verticalAlign=top;spacingLeft=20;spacingTop=15;html=1;whiteSpace=wrap;" vertex="1" parent="sGiRcGzGCiqCJtUnWVk3-43">
          <mxGeometry y="130" width="780" height="10" as="geometry" />
        </mxCell>
        <mxCell id="sGiRcGzGCiqCJtUnWVk3-36" style="edgeStyle=orthogonalEdgeStyle;rounded=0;orthogonalLoop=1;jettySize=auto;html=1;curved=0;" edge="1" parent="sGiRcGzGCiqCJtUnWVk3-43">
          <mxGeometry relative="1" as="geometry">
            <mxPoint x="605" y="150" as="sourcePoint" />
            <mxPoint x="605" y="180" as="targetPoint" />
            <Array as="points">
              <mxPoint x="605" y="160" />
              <mxPoint x="660" y="160" />
              <mxPoint x="660" y="180" />
              <mxPoint x="605" y="180" />
            </Array>
          </mxGeometry>
        </mxCell>
        <mxCell id="sGiRcGzGCiqCJtUnWVk3-37" value="log error" style="edgeLabel;html=1;align=center;verticalAlign=middle;resizable=0;points=[];" vertex="1" connectable="0" parent="sGiRcGzGCiqCJtUnWVk3-36">
          <mxGeometry x="-0.4247" relative="1" as="geometry">
            <mxPoint y="-10" as="offset" />
          </mxGeometry>
        </mxCell>
        <mxCell id="sGiRcGzGCiqCJtUnWVk3-48" value="fetchDatabases(apiClient, clusterID)" style="html=1;verticalAlign=bottom;endArrow=block;curved=0;rounded=0;entryX=0;entryY=0;entryDx=0;entryDy=5;" edge="1" target="sGiRcGzGCiqCJtUnWVk3-47" parent="1" source="sGiRcGzGCiqCJtUnWVk3-27">
          <mxGeometry x="-0.4062" relative="1" as="geometry">
            <mxPoint x="1145" y="605" as="sourcePoint" />
            <mxPoint as="offset" />
          </mxGeometry>
        </mxCell>
        <mxCell id="sGiRcGzGCiqCJtUnWVk3-49" value="Return" style="html=1;verticalAlign=bottom;endArrow=open;dashed=1;endSize=8;curved=0;rounded=0;exitX=0;exitY=1;exitDx=0;exitDy=-5;" edge="1" source="sGiRcGzGCiqCJtUnWVk3-47" parent="1" target="sGiRcGzGCiqCJtUnWVk3-27">
          <mxGeometry x="0.7813" relative="1" as="geometry">
            <mxPoint x="1145" y="675" as="targetPoint" />
            <mxPoint as="offset" />
          </mxGeometry>
        </mxCell>
        <mxCell id="sGiRcGzGCiqCJtUnWVk3-51" value="DatabasesList(context.Background(), clusterID)" style="html=1;verticalAlign=bottom;endArrow=block;curved=0;rounded=0;entryX=1;entryY=0;entryDx=0;entryDy=5;" edge="1" target="sGiRcGzGCiqCJtUnWVk3-50" parent="1" source="sGiRcGzGCiqCJtUnWVk3-47">
          <mxGeometry x="0.7059" relative="1" as="geometry">
            <mxPoint x="435" y="610" as="sourcePoint" />
            <mxPoint as="offset" />
          </mxGeometry>
        </mxCell>
        <mxCell id="sGiRcGzGCiqCJtUnWVk3-52" value="Return DatabaseList" style="html=1;verticalAlign=bottom;endArrow=open;dashed=1;endSize=8;curved=0;rounded=0;exitX=1;exitY=1;exitDx=0;exitDy=-5;" edge="1" source="sGiRcGzGCiqCJtUnWVk3-50" parent="1" target="sGiRcGzGCiqCJtUnWVk3-47">
          <mxGeometry x="-0.8706" relative="1" as="geometry">
            <mxPoint x="435" y="680" as="targetPoint" />
            <mxPoint as="offset" />
          </mxGeometry>
        </mxCell>
        <mxCell id="sGiRcGzGCiqCJtUnWVk3-54" value="fetchOwner(apiClient, clusterID)" style="html=1;verticalAlign=bottom;endArrow=block;curved=0;rounded=0;entryX=0;entryY=0;entryDx=0;entryDy=5;" edge="1" target="sGiRcGzGCiqCJtUnWVk3-53" parent="1" source="sGiRcGzGCiqCJtUnWVk3-27">
          <mxGeometry x="-0.6383" relative="1" as="geometry">
            <mxPoint x="1295" y="725" as="sourcePoint" />
            <mxPoint as="offset" />
          </mxGeometry>
        </mxCell>
        <mxCell id="sGiRcGzGCiqCJtUnWVk3-55" value="Return" style="html=1;verticalAlign=bottom;endArrow=open;dashed=1;endSize=8;curved=0;rounded=0;exitX=0;exitY=1;exitDx=0;exitDy=-5;" edge="1" source="sGiRcGzGCiqCJtUnWVk3-53" parent="1" target="sGiRcGzGCiqCJtUnWVk3-27">
          <mxGeometry x="0.8511" relative="1" as="geometry">
            <mxPoint x="1295" y="795" as="targetPoint" />
            <mxPoint as="offset" />
          </mxGeometry>
        </mxCell>
        <mxCell id="sGiRcGzGCiqCJtUnWVk3-57" value="DatabasesList(context.Background(), clusterID)" style="html=1;verticalAlign=bottom;endArrow=block;curved=0;rounded=0;entryX=1;entryY=0;entryDx=0;entryDy=5;" edge="1" target="sGiRcGzGCiqCJtUnWVk3-56" parent="1" source="sGiRcGzGCiqCJtUnWVk3-53">
          <mxGeometry x="0.75" relative="1" as="geometry">
            <mxPoint x="435" y="700" as="sourcePoint" />
            <mxPoint as="offset" />
          </mxGeometry>
        </mxCell>
        <mxCell id="sGiRcGzGCiqCJtUnWVk3-58" value="Return owner" style="html=1;verticalAlign=bottom;endArrow=open;dashed=1;endSize=8;curved=0;rounded=0;exitX=1;exitY=1;exitDx=0;exitDy=-5;" edge="1" source="sGiRcGzGCiqCJtUnWVk3-56" parent="1" target="sGiRcGzGCiqCJtUnWVk3-53">
          <mxGeometry x="-0.91" relative="1" as="geometry">
            <mxPoint x="435" y="770" as="targetPoint" />
            <mxPoint as="offset" />
          </mxGeometry>
        </mxCell>
        <mxCell id="sGiRcGzGCiqCJtUnWVk3-61" value="Return TelemetryResponse" style="html=1;verticalAlign=bottom;endArrow=open;dashed=1;endSize=8;curved=0;rounded=0;" edge="1" source="sGiRcGzGCiqCJtUnWVk3-59" parent="1" target="sGiRcGzGCiqCJtUnWVk3-27">
          <mxGeometry x="0.6809" relative="1" as="geometry">
            <mxPoint x="899.9966666666666" y="1030" as="targetPoint" />
            <mxPoint x="1520" y="1040" as="sourcePoint" />
            <Array as="points">
              <mxPoint x="1480.33" y="1030" />
            </Array>
            <mxPoint as="offset" />
          </mxGeometry>
        </mxCell>
        <mxCell id="sGiRcGzGCiqCJtUnWVk3-60" value="fetchTelemetryMetrics(apiToken, query, clusterID)" style="html=1;verticalAlign=bottom;endArrow=block;curved=0;rounded=0;entryX=0;entryY=0;entryDx=0;entryDy=5;" edge="1" target="sGiRcGzGCiqCJtUnWVk3-59" parent="1" source="sGiRcGzGCiqCJtUnWVk3-27">
          <mxGeometry x="-0.4255" relative="1" as="geometry">
            <mxPoint x="1295" y="845" as="sourcePoint" />
            <mxPoint as="offset" />
          </mxGeometry>
        </mxCell>
        <mxCell id="sGiRcGzGCiqCJtUnWVk3-83" value="Lock" style="html=1;verticalAlign=bottom;endArrow=open;dashed=1;endSize=8;curved=0;rounded=0;" edge="1" parent="1" source="sGiRcGzGCiqCJtUnWVk3-5" target="sGiRcGzGCiqCJtUnWVk3-82">
          <mxGeometry x="0.8505" relative="1" as="geometry">
            <mxPoint x="560" y="1119.67" as="targetPoint" />
            <mxPoint x="870" y="1120" as="sourcePoint" />
            <mxPoint as="offset" />
          </mxGeometry>
        </mxCell>
        <mxCell id="sGiRcGzGCiqCJtUnWVk3-84" value="Unlock" style="html=1;verticalAlign=bottom;endArrow=open;dashed=1;endSize=8;curved=0;rounded=0;" edge="1" parent="1" source="sGiRcGzGCiqCJtUnWVk3-27">
          <mxGeometry x="0.8505" relative="1" as="geometry">
            <mxPoint x="555" y="1170" as="targetPoint" />
            <mxPoint x="875" y="1170" as="sourcePoint" />
            <mxPoint as="offset" />
          </mxGeometry>
        </mxCell>
        <mxCell id="sGiRcGzGCiqCJtUnWVk3-87" value="alt" style="shape=umlFrame;whiteSpace=wrap;html=1;pointerEvents=0;recursiveResize=0;container=1;collapsible=0;width=60;height=30;strokeWidth=2;" vertex="1" parent="1">
          <mxGeometry x="230" y="560" width="1490" height="720" as="geometry" />
        </mxCell>
        <mxCell id="sGiRcGzGCiqCJtUnWVk3-88" value="&lt;b&gt;[ if datacenters.Items not nil ]&lt;/b&gt;" style="text;html=1;" vertex="1" parent="sGiRcGzGCiqCJtUnWVk3-87">
          <mxGeometry width="100" height="20" relative="1" as="geometry">
            <mxPoint x="70" as="offset" />
          </mxGeometry>
        </mxCell>
        <mxCell id="sGiRcGzGCiqCJtUnWVk3-92" value="loop" style="shape=umlFrame;whiteSpace=wrap;html=1;pointerEvents=0;recursiveResize=0;container=1;collapsible=0;width=60;height=30;strokeWidth=2;" vertex="1" parent="sGiRcGzGCiqCJtUnWVk3-87">
          <mxGeometry x="10" y="40" width="1470" height="670" as="geometry" />
        </mxCell>
        <mxCell id="sGiRcGzGCiqCJtUnWVk3-93" value="&lt;b&gt;[ for each cluster in datacenters.Items ]&lt;/b&gt;" style="text;html=1;" vertex="1" parent="sGiRcGzGCiqCJtUnWVk3-92">
          <mxGeometry width="100" height="20" relative="1" as="geometry">
            <mxPoint x="70" as="offset" />
          </mxGeometry>
        </mxCell>
        <mxCell id="sGiRcGzGCiqCJtUnWVk3-97" value="loop" style="shape=umlFrame;whiteSpace=wrap;html=1;pointerEvents=0;recursiveResize=0;container=1;collapsible=0;width=60;height=30;strokeWidth=2;" vertex="1" parent="sGiRcGzGCiqCJtUnWVk3-92">
          <mxGeometry x="390" y="210" width="1070" height="230" as="geometry" />
        </mxCell>
        <mxCell id="sGiRcGzGCiqCJtUnWVk3-98" value="&lt;b&gt;[ for each metric in metrics ]&lt;/b&gt;" style="text;html=1;" vertex="1" parent="sGiRcGzGCiqCJtUnWVk3-97">
          <mxGeometry width="100" height="20" relative="1" as="geometry">
            <mxPoint x="80" as="offset" />
          </mxGeometry>
        </mxCell>
      </root>
    </mxGraphModel>
  </diagram>
</mxfile>
